<svg width="32" height="32" viewBox="0 0 32 32" xmlns="http://www.w3.org/2000/svg">
 <path d="m12.881 29.775c5.775-1.0755 11.062-2.1345 11.75-2.3535 0.90023-0.28666 1.25-3.4795 1.25-11.41 0-10.59-0.08619-11.033-2.25-11.563-1.2375-0.3027-6.525-1.3868-11.75-2.4092l-9.5-1.8589 29.5-0.21968v32l-29.5-0.23032zm-8-13.773c0-10.174 0.15687-11.129 1.75-10.659 0.9625 0.28448 5.0125 0.82295 9 1.1966l7.25 0.67936v17.509l-6.75 0.69231c-3.7125 0.38077-7.7625 0.93198-9 1.2249-2.2309 0.52807-2.25 0.43766-2.25-10.643z" fill="#fe3636"/>
</svg>
